<svg version="1.2" baseProfile="tiny-ps" xmlns="http://www.w3.org/2000/svg" viewBox="0 0 21 20" width="21" height="20">
	<title>Services</title>
	<style>
		tspan { white-space:pre }
		.shp0 { fill: #feb960 } 
	</style>
	<g id="Services">
		<g id="Active">
			<g id="Services">
				<g id="Single Service copy">
					<path id="k" class="shp0" d="M6.84 8.79L9.11 6.52L15.51 12.97L16.64 16.33L13.29 15.2L6.84 8.79ZM3.87 5.82C3.56 5.51 3.4 5.13 3.4 4.69C3.4 4.25 3.56 3.87 3.87 3.55C4.18 3.24 4.56 3.09 5 3.09C5.45 3.09 5.82 3.24 6.14 3.55L7.78 5.23L5.55 7.46L3.87 5.82ZM20.02 0.45C20.27 0.7 20.39 0.99 20.39 1.33L20.39 18.83C20.39 19.17 20.27 19.46 20.02 19.71C19.78 19.95 19.48 20.08 19.14 20.08L1.64 20.08C1.31 20.08 1.01 19.95 0.77 19.71C0.52 19.46 0.39 19.17 0.39 18.83L0.39 1.33C0.39 0.99 0.52 0.7 0.77 0.45C1.01 0.2 1.31 0.08 1.64 0.08L19.14 0.08C19.48 0.08 19.78 0.2 20.02 0.45ZM19.14 1.33L1.64 1.33L1.64 18.83L19.14 18.83L19.14 1.33Z" />
				</g>
			</g>
		</g>
	</g>
</svg>