<svg version="1.2" baseProfile="tiny-ps" xmlns="http://www.w3.org/2000/svg" viewBox="0 0 15 20" width="15" height="20">
	<title>Services</title>
	<style>
		tspan { white-space:pre }
		.shp0 { fill: #feb960 } 
	</style>
	<g id="Services">
		<g id="Active">
			<g id="Services">
				<g id="Single Service copy 2">
					<path id="" class="shp0" d="M-0.11 2.58C-0.11 1.88 0.14 1.28 0.62 0.8C1.1 0.32 1.69 0.08 2.39 0.08C3.1 0.08 3.69 0.32 4.17 0.8C4.65 1.28 4.89 1.88 4.89 2.58L4.89 3.83L4.89 13.83L2.39 20.08L0.09 14.3L-0.11 13.83L-0.11 3.83L-0.11 3.83L-0.11 2.58ZM1.14 3.83L3.64 3.83L3.64 2.58C3.64 2.24 3.52 1.95 3.27 1.7C3.03 1.45 2.73 1.33 2.39 1.33C2.06 1.33 1.76 1.45 1.52 1.7C1.27 1.95 1.14 2.24 1.14 2.58L1.14 3.83ZM3.02 15.12L3.29 14.49L3.29 14.41L2.39 13.98L1.5 14.41L1.5 14.49L1.77 15.12L2.39 16.72L3.02 15.12ZM3.64 5.98L3.64 5.23L3.64 5.08L2.39 5.08L1.14 5.08L1.14 5.23L1.14 5.98L1.14 13.2L2.39 12.58L3.64 13.2L3.64 5.98ZM13.64 5.08L13.64 11.33C13.98 11.33 14.28 11.45 14.52 11.7C14.77 11.95 14.89 12.24 14.89 12.58L14.89 16.33C14.89 16.67 14.77 16.96 14.52 17.21C14.28 17.45 13.98 17.58 13.64 17.58C13.64 18.28 13.4 18.87 12.92 19.36C12.44 19.84 11.85 20.08 11.14 20.08C10.44 20.08 9.85 19.84 9.37 19.36C8.89 18.87 8.64 18.28 8.64 17.58L8.64 5.08L9.15 3.79L10.32 0.78L10.36 0.78C10.39 0.57 10.47 0.4 10.62 0.27C10.76 0.14 10.94 0.08 11.14 0.08C11.56 0.08 11.82 0.29 11.93 0.7L13.14 3.79L13.64 5.08ZM12.39 11.33L12.39 5.08L12.32 5.08L9.97 5.08L9.89 5.08L9.89 17.58C9.89 17.92 10.02 18.21 10.27 18.46C10.51 18.7 10.81 18.83 11.14 18.83C11.48 18.83 11.78 18.7 12.02 18.46C12.27 18.21 12.39 17.92 12.39 17.58L12.39 16.33L12.39 12.58L12.39 11.33ZM11.14 2.19L10.48 3.83L11.81 3.83L11.14 2.19Z" />
				</g>
			</g>
		</g>
	</g>
</svg>